<?xml version="1.0" standalone="no"?>
<!DOCTYPE svg PUBLIC "-//W3C//DTD SVG 20010904//EN"
 "http://www.w3.org/TR/2001/REC-SVG-20010904/DTD/svg10.dtd">
<svg version="1.0" xmlns="http://www.w3.org/2000/svg"
 width="512.000000pt" height="512.000000pt" viewBox="0 0 512.000000 512.000000"
 preserveAspectRatio="xMidYMid meet">

<g transform="translate(0.000000,512.000000) scale(0.100000,-0.100000)"
fill="#000000" stroke="none">
<path d="M1690 5114 c-117 -17 -178 -31 -259 -60 -512 -182 -797 -737 -645
-1260 103 -357 378 -624 742 -721 84 -23 117 -26 252 -27 126 0 171 4 241 21
384 96 675 387 771 770 32 125 32 360 1 483 -63 248 -225 483 -425 616 -199
133 -479 206 -678 178z"/>
<path d="M1525 2344 c-842 -129 -1448 -799 -1521 -1683 l-7 -84 1134 6 c624 4
1310 7 1526 7 l392 0 -62 83 c-99 131 -163 269 -205 440 -13 55 -17 113 -16
247 0 158 3 185 28 275 14 55 50 148 79 208 l53 107 -56 44 c-233 183 -522
305 -831 350 -131 20 -389 19 -514 0z"/>
<path d="M3800 2319 c-470 -42 -840 -425 -876 -906 -21 -278 97 -571 309 -770
86 -80 139 -116 250 -168 144 -68 236 -88 402 -89 196 -1 332 33 490 122 l60
34 260 -266 c251 -257 261 -266 298 -266 95 0 157 91 114 167 -7 11 -100 113
-207 225 -108 111 -215 224 -239 250 l-43 47 51 68 c221 293 258 687 95 1016
-180 362 -559 573 -964 536z m259 -265 c90 -22 214 -83 286 -141 120 -98 214
-248 251 -400 23 -100 15 -290 -16 -383 -171 -504 -785 -664 -1176 -307 -419
383 -243 1082 308 1227 93 24 256 26 347 4z"/>
</g>
</svg>
